<mxfile host="app.diagrams.net" modified="2022-09-09T10:24:04.082Z" agent="5.0 (Macintosh; Intel Mac OS X 10_15_7) AppleWebKit/605.1.15 (KHTML, like Gecko) Version/15.5 Safari/605.1.15" etag="PmziCnKBqVJZ-BWG_oVP" version="20.3.0" type="github">
  <diagram id="Jph7q5hVraavxcGT9fUf" name="Page-1">
    <mxGraphModel dx="2013" dy="837" grid="1" gridSize="10" guides="1" tooltips="1" connect="1" arrows="1" fold="1" page="1" pageScale="1" pageWidth="827" pageHeight="1169" math="0" shadow="0">
      <root>
        <mxCell id="0" />
        <mxCell id="1" parent="0" />
        <mxCell id="NwZ4r76V9XNdE9PYF-cX-32" style="edgeStyle=orthogonalEdgeStyle;rounded=0;orthogonalLoop=1;jettySize=auto;html=1;entryX=0;entryY=0;entryDx=80.5;entryDy=14;entryPerimeter=0;" edge="1" parent="1" source="NwZ4r76V9XNdE9PYF-cX-1" target="NwZ4r76V9XNdE9PYF-cX-26">
          <mxGeometry relative="1" as="geometry" />
        </mxCell>
        <mxCell id="NwZ4r76V9XNdE9PYF-cX-41" style="edgeStyle=orthogonalEdgeStyle;rounded=0;orthogonalLoop=1;jettySize=auto;html=1;entryX=0.5;entryY=1;entryDx=0;entryDy=0;" edge="1" parent="1" source="NwZ4r76V9XNdE9PYF-cX-1" target="NwZ4r76V9XNdE9PYF-cX-10">
          <mxGeometry relative="1" as="geometry" />
        </mxCell>
        <mxCell id="NwZ4r76V9XNdE9PYF-cX-42" style="edgeStyle=orthogonalEdgeStyle;rounded=0;orthogonalLoop=1;jettySize=auto;html=1;entryX=0.5;entryY=1;entryDx=0;entryDy=0;" edge="1" parent="1" source="NwZ4r76V9XNdE9PYF-cX-1" target="NwZ4r76V9XNdE9PYF-cX-9">
          <mxGeometry relative="1" as="geometry" />
        </mxCell>
        <mxCell id="NwZ4r76V9XNdE9PYF-cX-43" style="edgeStyle=orthogonalEdgeStyle;rounded=0;orthogonalLoop=1;jettySize=auto;html=1;entryX=0.5;entryY=1;entryDx=0;entryDy=0;" edge="1" parent="1" source="NwZ4r76V9XNdE9PYF-cX-1" target="NwZ4r76V9XNdE9PYF-cX-8">
          <mxGeometry relative="1" as="geometry" />
        </mxCell>
        <mxCell id="NwZ4r76V9XNdE9PYF-cX-44" style="edgeStyle=orthogonalEdgeStyle;rounded=0;orthogonalLoop=1;jettySize=auto;html=1;entryX=0.5;entryY=1;entryDx=0;entryDy=0;" edge="1" parent="1" source="NwZ4r76V9XNdE9PYF-cX-1" target="NwZ4r76V9XNdE9PYF-cX-11">
          <mxGeometry relative="1" as="geometry" />
        </mxCell>
        <mxCell id="NwZ4r76V9XNdE9PYF-cX-1" value="Math core (Silo)" style="shape=module;align=left;spacingLeft=20;align=center;verticalAlign=top;fillColor=#f8cecc;strokeColor=#b85450;" vertex="1" parent="1">
          <mxGeometry x="320" y="200" width="200" height="40" as="geometry" />
        </mxCell>
        <mxCell id="NwZ4r76V9XNdE9PYF-cX-30" style="edgeStyle=orthogonalEdgeStyle;rounded=0;orthogonalLoop=1;jettySize=auto;html=1;entryX=0;entryY=0;entryDx=20;entryDy=0;entryPerimeter=0;" edge="1" parent="1" source="NwZ4r76V9XNdE9PYF-cX-2" target="NwZ4r76V9XNdE9PYF-cX-26">
          <mxGeometry relative="1" as="geometry" />
        </mxCell>
        <mxCell id="NwZ4r76V9XNdE9PYF-cX-2" value="MD: execution reports client" style="shape=module;align=left;spacingLeft=20;align=center;verticalAlign=top;fillColor=#d5e8d4;strokeColor=#82b366;" vertex="1" parent="1">
          <mxGeometry x="-80" y="360" width="200" height="40" as="geometry" />
        </mxCell>
        <mxCell id="NwZ4r76V9XNdE9PYF-cX-31" style="edgeStyle=orthogonalEdgeStyle;rounded=0;orthogonalLoop=1;jettySize=auto;html=1;" edge="1" parent="1" source="NwZ4r76V9XNdE9PYF-cX-3">
          <mxGeometry relative="1" as="geometry">
            <mxPoint x="380" y="430" as="targetPoint" />
          </mxGeometry>
        </mxCell>
        <mxCell id="NwZ4r76V9XNdE9PYF-cX-3" value="MD: quotes" style="shape=module;align=left;spacingLeft=20;align=center;verticalAlign=top;fillColor=#d5e8d4;strokeColor=#82b366;" vertex="1" parent="1">
          <mxGeometry x="-80" y="280" width="200" height="40" as="geometry" />
        </mxCell>
        <mxCell id="NwZ4r76V9XNdE9PYF-cX-29" style="edgeStyle=orthogonalEdgeStyle;rounded=0;orthogonalLoop=1;jettySize=auto;html=1;entryX=0;entryY=0;entryDx=0;entryDy=32;entryPerimeter=0;" edge="1" parent="1" source="NwZ4r76V9XNdE9PYF-cX-4" target="NwZ4r76V9XNdE9PYF-cX-26">
          <mxGeometry relative="1" as="geometry" />
        </mxCell>
        <mxCell id="NwZ4r76V9XNdE9PYF-cX-4" value="Corrections" style="shape=module;align=left;spacingLeft=20;align=center;verticalAlign=top;fillColor=#d5e8d4;strokeColor=#82b366;" vertex="1" parent="1">
          <mxGeometry x="-80" y="440" width="200" height="40" as="geometry" />
        </mxCell>
        <mxCell id="NwZ4r76V9XNdE9PYF-cX-27" style="edgeStyle=orthogonalEdgeStyle;rounded=0;orthogonalLoop=1;jettySize=auto;html=1;entryX=0.5;entryY=1;entryDx=0;entryDy=0;entryPerimeter=0;" edge="1" parent="1" source="NwZ4r76V9XNdE9PYF-cX-5" target="NwZ4r76V9XNdE9PYF-cX-26">
          <mxGeometry relative="1" as="geometry" />
        </mxCell>
        <mxCell id="NwZ4r76V9XNdE9PYF-cX-5" value="Trades history client" style="shape=module;align=left;spacingLeft=20;align=center;verticalAlign=top;fillColor=#d5e8d4;strokeColor=#82b366;" vertex="1" parent="1">
          <mxGeometry x="-80" y="600" width="200" height="40" as="geometry" />
        </mxCell>
        <mxCell id="NwZ4r76V9XNdE9PYF-cX-28" style="edgeStyle=orthogonalEdgeStyle;rounded=0;orthogonalLoop=1;jettySize=auto;html=1;" edge="1" parent="1" source="NwZ4r76V9XNdE9PYF-cX-6">
          <mxGeometry relative="1" as="geometry">
            <mxPoint x="420" y="470" as="targetPoint" />
          </mxGeometry>
        </mxCell>
        <mxCell id="NwZ4r76V9XNdE9PYF-cX-6" value="Backoffice client" style="shape=module;align=left;spacingLeft=20;align=center;verticalAlign=top;fillColor=#d5e8d4;strokeColor=#82b366;" vertex="1" parent="1">
          <mxGeometry x="-80" y="520" width="200" height="40" as="geometry" />
        </mxCell>
        <mxCell id="NwZ4r76V9XNdE9PYF-cX-8" value="Source data&lt;br&gt;(Postresql)" style="shape=datastore;whiteSpace=wrap;html=1;fillColor=#dae8fc;strokeColor=#6c8ebf;" vertex="1" parent="1">
          <mxGeometry x="440" y="80" width="70" height="70" as="geometry" />
        </mxCell>
        <mxCell id="NwZ4r76V9XNdE9PYF-cX-9" value="Hot data&lt;br&gt;(Redis)" style="shape=datastore;whiteSpace=wrap;html=1;fillColor=#dae8fc;strokeColor=#6c8ebf;" vertex="1" parent="1">
          <mxGeometry x="330" y="80" width="70" height="70" as="geometry" />
        </mxCell>
        <mxCell id="NwZ4r76V9XNdE9PYF-cX-10" value="Clients cache&lt;br&gt;(Redis)" style="shape=datastore;whiteSpace=wrap;html=1;fillColor=#dae8fc;strokeColor=#6c8ebf;" vertex="1" parent="1">
          <mxGeometry x="220" y="80" width="70" height="70" as="geometry" />
        </mxCell>
        <mxCell id="NwZ4r76V9XNdE9PYF-cX-11" value="Reporting&lt;br&gt;(MongoDB)" style="shape=datastore;whiteSpace=wrap;html=1;fillColor=#dae8fc;strokeColor=#6c8ebf;" vertex="1" parent="1">
          <mxGeometry x="550" y="80" width="70" height="70" as="geometry" />
        </mxCell>
        <mxCell id="NwZ4r76V9XNdE9PYF-cX-36" style="edgeStyle=orthogonalEdgeStyle;rounded=0;orthogonalLoop=1;jettySize=auto;html=1;entryX=0.895;entryY=1.025;entryDx=0;entryDy=0;entryPerimeter=0;" edge="1" parent="1" source="NwZ4r76V9XNdE9PYF-cX-12" target="NwZ4r76V9XNdE9PYF-cX-1">
          <mxGeometry relative="1" as="geometry" />
        </mxCell>
        <mxCell id="NwZ4r76V9XNdE9PYF-cX-12" value="Portfolio API client" style="shape=module;align=left;spacingLeft=20;align=center;verticalAlign=top;fillColor=#d5e8d4;strokeColor=#82b366;" vertex="1" parent="1">
          <mxGeometry x="520" y="280" width="200" height="40" as="geometry" />
        </mxCell>
        <mxCell id="NwZ4r76V9XNdE9PYF-cX-37" style="edgeStyle=orthogonalEdgeStyle;rounded=0;orthogonalLoop=1;jettySize=auto;html=1;" edge="1" parent="1" source="NwZ4r76V9XNdE9PYF-cX-13">
          <mxGeometry relative="1" as="geometry">
            <mxPoint x="500" y="240" as="targetPoint" />
          </mxGeometry>
        </mxCell>
        <mxCell id="NwZ4r76V9XNdE9PYF-cX-13" value="Real time (WS) client" style="shape=module;align=left;spacingLeft=20;align=center;verticalAlign=top;fillColor=#d5e8d4;strokeColor=#82b366;" vertex="1" parent="1">
          <mxGeometry x="520" y="360" width="200" height="40" as="geometry" />
        </mxCell>
        <mxCell id="NwZ4r76V9XNdE9PYF-cX-38" style="edgeStyle=orthogonalEdgeStyle;rounded=0;orthogonalLoop=1;jettySize=auto;html=1;entryX=0.895;entryY=1.05;entryDx=0;entryDy=0;entryPerimeter=0;" edge="1" parent="1" source="NwZ4r76V9XNdE9PYF-cX-14" target="NwZ4r76V9XNdE9PYF-cX-1">
          <mxGeometry relative="1" as="geometry">
            <Array as="points">
              <mxPoint x="499" y="460" />
            </Array>
          </mxGeometry>
        </mxCell>
        <mxCell id="NwZ4r76V9XNdE9PYF-cX-14" value="Partner API client" style="shape=module;align=left;spacingLeft=20;align=center;verticalAlign=top;fillColor=#d5e8d4;strokeColor=#82b366;" vertex="1" parent="1">
          <mxGeometry x="520" y="440" width="200" height="40" as="geometry" />
        </mxCell>
        <mxCell id="NwZ4r76V9XNdE9PYF-cX-39" style="edgeStyle=orthogonalEdgeStyle;rounded=0;orthogonalLoop=1;jettySize=auto;html=1;entryX=0.895;entryY=1.05;entryDx=0;entryDy=0;entryPerimeter=0;" edge="1" parent="1" source="NwZ4r76V9XNdE9PYF-cX-15" target="NwZ4r76V9XNdE9PYF-cX-1">
          <mxGeometry relative="1" as="geometry">
            <Array as="points">
              <mxPoint x="499" y="540" />
            </Array>
          </mxGeometry>
        </mxCell>
        <mxCell id="NwZ4r76V9XNdE9PYF-cX-15" value="Reporting API client" style="shape=module;align=left;spacingLeft=20;align=center;verticalAlign=top;fillColor=#d5e8d4;strokeColor=#82b366;" vertex="1" parent="1">
          <mxGeometry x="520" y="520" width="200" height="40" as="geometry" />
        </mxCell>
        <mxCell id="NwZ4r76V9XNdE9PYF-cX-40" style="edgeStyle=orthogonalEdgeStyle;rounded=0;orthogonalLoop=1;jettySize=auto;html=1;entryX=0.895;entryY=1.025;entryDx=0;entryDy=0;entryPerimeter=0;" edge="1" parent="1" source="NwZ4r76V9XNdE9PYF-cX-16" target="NwZ4r76V9XNdE9PYF-cX-1">
          <mxGeometry relative="1" as="geometry">
            <Array as="points">
              <mxPoint x="499" y="620" />
            </Array>
          </mxGeometry>
        </mxCell>
        <mxCell id="NwZ4r76V9XNdE9PYF-cX-16" value="Service client" style="shape=module;align=left;spacingLeft=20;align=center;verticalAlign=top;fillColor=#d5e8d4;strokeColor=#82b366;" vertex="1" parent="1">
          <mxGeometry x="520" y="600" width="200" height="40" as="geometry" />
        </mxCell>
        <mxCell id="NwZ4r76V9XNdE9PYF-cX-20" value="" style="edgeStyle=orthogonalEdgeStyle;rounded=0;orthogonalLoop=1;jettySize=auto;html=1;entryX=0;entryY=0;entryDx=0;entryDy=15;entryPerimeter=0;" edge="1" parent="1" source="NwZ4r76V9XNdE9PYF-cX-17" target="NwZ4r76V9XNdE9PYF-cX-2">
          <mxGeometry relative="1" as="geometry" />
        </mxCell>
        <mxCell id="NwZ4r76V9XNdE9PYF-cX-21" style="edgeStyle=orthogonalEdgeStyle;rounded=0;orthogonalLoop=1;jettySize=auto;html=1;entryX=0;entryY=0.55;entryDx=0;entryDy=0;entryPerimeter=0;" edge="1" parent="1" source="NwZ4r76V9XNdE9PYF-cX-17" target="NwZ4r76V9XNdE9PYF-cX-3">
          <mxGeometry relative="1" as="geometry" />
        </mxCell>
        <mxCell id="NwZ4r76V9XNdE9PYF-cX-17" value="QUIK" style="rounded=1;whiteSpace=wrap;html=1;fillColor=#bac8d3;strokeColor=#23445d;" vertex="1" parent="1">
          <mxGeometry x="-310" y="320" width="120" height="60" as="geometry" />
        </mxCell>
        <mxCell id="NwZ4r76V9XNdE9PYF-cX-22" style="edgeStyle=orthogonalEdgeStyle;rounded=0;orthogonalLoop=1;jettySize=auto;html=1;entryX=0;entryY=0;entryDx=0;entryDy=15;entryPerimeter=0;" edge="1" parent="1" source="NwZ4r76V9XNdE9PYF-cX-18" target="NwZ4r76V9XNdE9PYF-cX-4">
          <mxGeometry relative="1" as="geometry" />
        </mxCell>
        <mxCell id="NwZ4r76V9XNdE9PYF-cX-23" style="edgeStyle=orthogonalEdgeStyle;rounded=0;orthogonalLoop=1;jettySize=auto;html=1;entryX=0;entryY=0;entryDx=0;entryDy=15;entryPerimeter=0;" edge="1" parent="1" source="NwZ4r76V9XNdE9PYF-cX-18" target="NwZ4r76V9XNdE9PYF-cX-6">
          <mxGeometry relative="1" as="geometry" />
        </mxCell>
        <mxCell id="NwZ4r76V9XNdE9PYF-cX-18" value="BORR" style="rounded=1;whiteSpace=wrap;html=1;fillColor=#bac8d3;strokeColor=#23445d;" vertex="1" parent="1">
          <mxGeometry x="-310" y="440" width="120" height="60" as="geometry" />
        </mxCell>
        <mxCell id="NwZ4r76V9XNdE9PYF-cX-25" style="edgeStyle=orthogonalEdgeStyle;rounded=0;orthogonalLoop=1;jettySize=auto;html=1;entryX=0;entryY=0;entryDx=0;entryDy=15;entryPerimeter=0;" edge="1" parent="1" source="NwZ4r76V9XNdE9PYF-cX-19" target="NwZ4r76V9XNdE9PYF-cX-5">
          <mxGeometry relative="1" as="geometry" />
        </mxCell>
        <mxCell id="NwZ4r76V9XNdE9PYF-cX-19" value="DWH" style="rounded=1;whiteSpace=wrap;html=1;fillColor=#bac8d3;strokeColor=#23445d;" vertex="1" parent="1">
          <mxGeometry x="-310" y="560" width="120" height="60" as="geometry" />
        </mxCell>
        <mxCell id="NwZ4r76V9XNdE9PYF-cX-26" value="Kafka" style="shape=folder;fontStyle=1;spacingTop=10;tabWidth=40;tabHeight=14;tabPosition=left;html=1;fillColor=#fad7ac;strokeColor=#b46504;" vertex="1" parent="1">
          <mxGeometry x="359" y="430" width="121" height="50" as="geometry" />
        </mxCell>
        <mxCell id="NwZ4r76V9XNdE9PYF-cX-45" value="" style="rounded=1;whiteSpace=wrap;html=1;fillColor=none;dashed=1;" vertex="1" parent="1">
          <mxGeometry x="180" y="10" width="640" height="660" as="geometry" />
        </mxCell>
        <mxCell id="NwZ4r76V9XNdE9PYF-cX-46" value="K8S (Orleans)" style="text;html=1;strokeColor=none;fillColor=none;align=center;verticalAlign=middle;whiteSpace=wrap;rounded=0;dashed=1;" vertex="1" parent="1">
          <mxGeometry x="250" y="20" width="150" height="20" as="geometry" />
        </mxCell>
      </root>
    </mxGraphModel>
  </diagram>
</mxfile>
